# xmcd
#
# Track frame offsets: 
#        150
#        18207
#        38240
#        64657
#        82824
#        96862
#        98392
#        115531
#        133385
#        156073
#        178981
#        197777
#        223590
#
# Disc length: 3002 seconds
#
# Revision: 0
# Processed by: cddbd v1.5.2PL0 Copyright (c) Steve Scherf et al.
# Submitted via: ExactAudioCopy v0.95b4
#
DISCID=a50bb80d
DTITLE=Shorty Gilbert - Lil' Shorty In The Wee Hours
DYEAR=2006
DGENRE=Blues
TTITLE0=CC Rider
TTITLE1=Look Out Mama
TTITLE2=Funny how Time Slips Away
TTITLE3=May I Have A Word
TTITLE4=Kanasas City
TTITLE5=Intro
TTITLE6=I Like That
TTITLE7=Later On
TTITLE8=Mystery Train
TTITLE9=Rainy Night In Georgia
TTITLE10=Sweet Home Chicago
TTITLE11=She Caught The KD
TTITLE12=Closing
EXTD=
EXTT0=
EXTT1=
EXTT2=
EXTT3=
EXTT4=
EXTT5=
EXTT6=
EXTT7=
EXTT8=
EXTT9=
EXTT10=
EXTT11=
EXTT12=
PLAYORDER=
